# xmcd CD database file
#
# Track frame offsets:
#	150
#	15270
#	27337
#	44715
#	63550
#	75815
#	92782
#	107790
#	124495
#	137900
#	148727
#	158502
#
# Disc length: 2303 seconds
#
# Revision: 0
# Processed by: cddbd v1.5.1PL2 Copyright (c) Steve Scherf et al.
# Submitted via: CDex 1.51
#
DISCID=9e08fd0c
DTITLE=DAM DOG - Blues With A Bite
DYEAR=1996
DGENRE=Blues
TTITLE0=Long Distance Baby
TTITLE1=Summertime
TTITLE2=I'm No Fool
TTITLE3=Heartbeat
TTITLE4=Ain't No Jive
TTITLE5=Hormone Blues
TTITLE6=Boston Boogie
TTITLE7=The Last Request
TTITLE8=Old Coon Dog
TTITLE9=Six Gun Blues
TTITLE10=Lucky Charm
TTITLE11=What I'm Gonna Do
EXTD=YEAR: 1996
EXTT0=
EXTT1=
EXTT2=
EXTT3=
EXTT4=
EXTT5=
EXTT6=
EXTT7=
EXTT8=
EXTT9=
EXTT10=
EXTT11=
PLAYORDER=
